<svg width="24" height="36" viewBox="0 0 24 36" fill="none" xmlns="http://www.w3.org/2000/svg">
<path d="M13.9019 22.3349L23.952 16.5336V12.6895L12.2393 19.454C11.3808 19.9503 10.668 20.6636 10.1725 21.5225C9.6769 22.3814 9.41602 23.3555 9.41602 24.3471C9.41602 25.3387 9.6769 26.3128 10.1725 27.1717C10.668 28.0306 11.3808 28.744 12.2393 29.2402L23.952 36.0048V32.1607L13.9019 26.3593C13.5505 26.1545 13.2589 25.8611 13.0563 25.5084C12.8537 25.1557 12.7471 24.7561 12.7471 24.3493C12.7471 23.9426 12.8537 23.5429 13.0563 23.1902C13.2589 22.8376 13.5505 22.5442 13.9019 22.3393V22.3349Z" fill="#EDF5F3"/>
<path d="M15.0354 11.6599C15.0421 10.6666 14.784 9.68952 14.2877 8.82912C13.7914 7.96873 13.0748 7.2561 12.2117 6.76456L0.490234 0V3.8441L10.5447 9.64544C10.8972 9.84942 11.1899 10.1425 11.3933 10.4953C11.5968 10.8481 11.7039 11.2482 11.7039 11.6555C11.7039 12.0627 11.5968 12.4628 11.3933 12.8156C11.1899 13.1684 10.8972 13.4615 10.5447 13.6655L0.490234 19.4712V23.3153L12.2029 16.5508C13.067 16.0607 13.7849 15.3493 14.2828 14.4896C14.7806 13.63 15.0404 12.6532 15.0354 11.6599Z" fill="#EDF5F3"/>
</svg>
